name C:/MyDriveSym/Projects/mobilecap/Data\Session20210827_0001\mocap\ForceDataProcessed\DJAsym2_forces.mot
datacolumns 28
datarows 8
range 2.33200000 2.33550000
endheader 
time	R_ground_force_vx	R_ground_force_vy	R_ground_force_vz	R_ground_force_px	R_ground_force_py	R_ground_force_pz	R_ground_torque_x	R_ground_torque_y	R_ground_torque_z	L_ground_force_vx	L_ground_force_vy	L_ground_force_vz	L_ground_force_px	L_ground_force_py	L_ground_force_pz	L_ground_torque_x	L_ground_torque_y	L_ground_torque_z	3_ground_force_vx	3_ground_force_vy	3_ground_force_vz	3_ground_force_px	3_ground_force_py	3_ground_force_pz	3_ground_torque_x	3_ground_torque_y	3_ground_torque_z	
          2.33200000	         10.61370700	        755.07381900	        -23.98984500	         -0.22319900	          0.00600000	         -0.49038700	          0.00000000	        -10.20533900	          0.00000000	        -31.59278600	        679.40450600	         63.50588100	         -0.16952400	          0.00600000	         -0.74877100	          0.00000000	          8.98973400	          0.00000000	          0.00000000	          0.00000000	          0.00000000	          0.00000000	          0.00000000	          0.00000000	          0.00000000	          0.00000000	          0.00000000	
          2.33250000	         10.60198800	        756.43218700	        -24.02000300	         -0.22325400	          0.00600000	         -0.49042100	          0.00000000	        -10.23742000	          0.00000000	        -31.97702000	        680.65741200	         63.53449500	         -0.16940800	          0.00600000	         -0.74878300	          0.00000000	          9.00254100	          0.00000000	          0.00000000	          0.00000000	          0.00000000	          0.00000000	          0.00000000	          0.00000000	          0.00000000	          0.00000000	          0.00000000	
          2.33300000	         10.58307300	        757.76303000	        -24.05260800	         -0.22330700	          0.00600000	         -0.49045600	          0.00000000	        -10.26889800	          0.00000000	        -32.35557200	        681.90283900	         63.56491200	         -0.16929200	          0.00600000	         -0.74879600	          0.00000000	          9.01502400	          0.00000000	          0.00000000	          0.00000000	          0.00000000	          0.00000000	          0.00000000	          0.00000000	          0.00000000	          0.00000000	          0.00000000	
          2.33350000	         10.55740100	        759.06687500	        -24.08739200	         -0.22335700	          0.00600000	         -0.49049000	          0.00000000	        -10.29980600	          0.00000000	        -32.72798000	        683.14146500	         63.59740200	         -0.16917600	          0.00600000	         -0.74880900	          0.00000000	          9.02717800	          0.00000000	          0.00000000	          0.00000000	          0.00000000	          0.00000000	          0.00000000	          0.00000000	          0.00000000	          0.00000000	          0.00000000	
          2.33400000	         10.52545100	        760.34429500	        -24.12408200	         -0.22340500	          0.00600000	         -0.49052500	          0.00000000	        -10.33017600	          0.00000000	        -33.09379600	        684.37401100	         63.63224800	         -0.16906100	          0.00600000	         -0.74882400	          0.00000000	          9.03900000	          0.00000000	          0.00000000	          0.00000000	          0.00000000	          0.00000000	          0.00000000	          0.00000000	          0.00000000	          0.00000000	          0.00000000	
          2.33450000	         10.48773400	        761.59593000	        -24.16240000	         -0.22345100	          0.00600000	         -0.49056000	          0.00000000	        -10.36004400	          0.00000000	        -33.45259300	        685.60123100	         63.66973600	         -0.16894500	          0.00600000	         -0.74884000	          0.00000000	          9.05048700	          0.00000000	          0.00000000	          0.00000000	          0.00000000	          0.00000000	          0.00000000	          0.00000000	          0.00000000	          0.00000000	          0.00000000	
          2.33500000	         10.44479400	        762.82250500	        -24.20206200	         -0.22349600	          0.00600000	         -0.49059500	          0.00000000	        -10.38944300	          0.00000000	        -33.80397400	        686.82390200	         63.71015900	         -0.16882900	          0.00600000	         -0.74885700	          0.00000000	          9.06163500	          0.00000000	          0.00000000	          0.00000000	          0.00000000	          0.00000000	          0.00000000	          0.00000000	          0.00000000	          0.00000000	          0.00000000	
          2.33550000	         10.39720100	        764.02479400	        -24.24278300	         -0.22353800	          0.00600000	         -0.49063000	          0.00000000	        -10.41840800	          0.00000000	        -34.14757100	        688.04284300	         63.75380500	         -0.16871400	          0.00600000	         -0.74887500	          0.00000000	          9.07243800	          0.00000000	          0.00000000	          0.00000000	          0.00000000	          0.00000000	          0.00000000	          0.00000000	          0.00000000	          0.00000000	          0.00000000	
